<?xml version="1.0" encoding="UTF-8"?>
<svg width="276px" height="46px" viewBox="0 0 276 46" version="1.1" xmlns="http://www.w3.org/2000/svg" xmlns:xlink="http://www.w3.org/1999/xlink">
    <!-- Generator: Sketch 49 (51002) - http://www.bohemiancoding.com/sketch -->
    <title>BBC_iPlayer_2014</title>
    <desc>Created with Sketch.</desc>
    <defs></defs>
    <g id="Page-1" stroke="none" stroke-width="1" fill="none" fill-rule="evenodd">
        <g id="Desktop-Copy-15" transform="translate(-561.000000, -901.000000)" fill="#FFFFFF" fill-rule="nonzero">
            <g id="BBC_iPlayer_2014" transform="translate(561.000000, 890.000000)">
                <path d="M64.2600129,33.5174044 C64.2600129,37.1909529 59.689509,36.9723261 59.689509,36.9723261 L55.1191678,36.9723261 L55.1191678,30.3341397 L59.689509,30.3341397 C64.39698,30.307462 64.2600129,33.5174044 64.2600129,33.5174044 Z M55.1191678,20.2141913 L58.6015804,20.2141913 C62.2198215,20.4048391 62.0831797,23.0974949 62.0831797,23.0974949 C62.0831797,26.4442418 58.0847818,26.4987358 58.0847818,26.4987358 L55.1191678,26.4987358 L55.1191678,20.2141913 Z M63.4170635,27.8044779 C63.4170635,27.8044779 66.5455089,26.4717328 66.5188312,22.9346635 C66.5188312,22.9346635 66.993824,17.1400772 59.3155336,16.4327935 L50.793643,16.4327935 L50.793643,40.7272105 L60.5606002,40.7272089 C60.5606002,40.7272089 68.7221795,40.7543745 68.7221795,33.8710463 C68.7221795,33.8708836 68.9125019,29.191717 63.4170635,27.8044779 Z M41.3660128,11.6716418 L77.2369126,11.6716418 L77.2369126,45.474859 L41.3660128,45.474859 L41.3660128,11.6716418 Z M22.8941628,33.5174044 C22.8941628,37.1909529 18.3238215,36.9723261 18.3238215,36.9723261 L13.7531549,36.9723261 L13.7531549,30.3341397 L18.3238215,30.3341397 C23.0303165,30.307462 22.8941628,33.5174044 22.8941628,33.5174044 Z M13.7531549,20.2141913 L17.2355676,20.2141913 C20.8538086,20.4048391 20.7178175,23.0974949 20.7178175,23.0974949 C20.7178175,26.4442418 16.7187689,26.4987358 16.7187689,26.4987358 L13.7533176,26.4987358 L13.7533176,20.2141913 L13.7531549,20.2141913 Z M22.0512133,27.8044779 C22.0512133,27.8044779 25.1794961,26.4717328 25.152493,22.9346635 C25.152493,22.9346635 25.6284618,17.1400772 17.9498461,16.4327935 L9.4274675,16.4327935 L9.4274675,40.7272105 L19.1945873,40.7272089 C19.1945873,40.7272089 27.3560039,40.7543745 27.3560039,33.8710463 C27.3561666,33.8708836 27.5461637,29.191717 22.0512133,27.8044779 Z M0,11.6716418 L35.8712251,11.6716418 L35.8712251,45.474859 L0,45.474859 L0,11.6716418 Z M111.284784,18.1739998 L111.284784,22.662844 C111.284784,22.662844 106.904277,19.9697001 102.061628,19.9148808 C102.061628,19.9148808 93.030259,19.7390359 92.6221231,28.5737384 C92.6221231,28.5737384 92.2958096,36.7013199 101.953291,37.1639499 C101.953291,37.1639499 106.006996,37.6532575 111.502922,34.1436791 L111.502922,38.7964934 C111.502922,38.7964934 104.129636,43.1758616 95.5870864,39.802437 C95.5870864,39.802437 88.4044477,37.1784274 88.1329536,28.5737384 C88.1329536,28.5737384 87.8336431,19.7250463 97.4099525,16.7867607 C97.4099525,16.7867607 99.9675933,15.8074948 104.564612,16.2426337 C104.564775,16.242471 107.312738,16.5146159 111.284784,18.1739998 Z M82.7317004,45.474859 L118.603251,45.474859 L118.603251,11.6716418 L82.7317004,11.6716418 L82.7317004,45.474859 Z" id="Shape"></path>
                <path d="M164.417944,27.6366003 L162.131542,27.6366003 L162.131542,17.4776202 L164.417944,17.4776202 C167.465821,17.4776202 169.878524,19.1280017 169.878524,22.5574627 C169.878524,26.1123798 167.465821,27.6366003 164.417944,27.6366003 Z M197.689735,39.700257 C195.657629,39.700257 194.133972,38.6847678 194.133972,36.9075207 C194.133972,34.4941128 196.419809,33.6047844 199.340821,33.6047844 C200.610746,33.6047844 201.880954,33.7323549 202.896725,33.7323549 C203.023449,36.6535075 200.991484,39.700257 197.689735,39.700257 Z M240.613748,29.9220149 C240.740191,27.00199 242.264411,24.7155887 245.312148,24.7155887 C248.74034,24.7155887 250.009842,27.1285738 250.009842,29.9220149 L240.613748,29.9220149 Z M275.662222,19.3827197 C274.900887,19.2551493 274.012264,19.1278607 273.122653,19.1278607 C269.440025,19.1278607 266.773872,21.1598259 265.24937,24.3351327 L265.122927,24.3351327 L265.122927,19.7628939 L257.376368,19.7628939 L257.376368,28.0180431 L257.249502,28.0180431 C255.852993,22.9373549 252.296949,19.2550083 245.438731,19.2550083 C240.740191,19.2550083 236.804113,21.0325373 234.389718,24.2072803 L236.169362,19.7630348 L227.659635,19.7630348 L222.580638,36.1440713 L222.453773,36.1440713 L216.992065,19.7630348 L207.722272,19.7630348 L208.992197,22.8107711 L208.86505,22.8107711 C206.705937,20.1443367 203.150174,19.1278607 199.214237,19.1278607 C195.531609,19.1278607 193.627073,19.6363101 190.451343,20.5243698 C190.451343,20.5243698 188.546526,26.366393 188.419942,26.6195605 C188.291667,26.8744196 188.546526,27.2547347 188.926559,27.0008624 C191.086095,25.9850912 193.88024,24.8430182 197.436144,24.8430182 C200.483881,24.8430182 203.023449,25.7316418 203.150033,29.1606799 C202.006973,28.9059619 200.483881,28.7790962 199.214096,28.7790962 C195.531468,28.7790962 189.689726,29.4142703 187.403184,33.4777778 L187.276741,33.4777778 L187.276741,11 L178.768847,11 L178.768847,19.0012769 L178.64029,19.0012769 C176.990755,13.7944279 172.291791,11 163.908789,11 L153.242629,11 L153.242629,19.902869 L143.336816,11 L134.955224,11 L134.955224,19.5100083 L143.336957,19.5100083 L143.336957,15.9538226 L156.925116,27.8916003 L143.336957,39.9549751 L143.336957,23.7000995 L134.955224,23.7000995 L134.955224,44.907529 L143.336957,44.907529 L153.242769,35.9392537 L153.242769,44.907529 L162.132388,44.907529 L162.132388,34.1135158 L165.560439,34.1135158 C172.418375,34.1135158 176.990896,30.9390547 178.387264,25.9852322 L178.513988,25.9852322 L178.513988,44.907529 L187.022023,44.907529 L187.022023,41.3527529 L187.150158,41.3527529 C188.67325,44.1457711 191.975846,45.2888308 195.531468,45.4159784 C199.848847,45.5422803 202.261692,43.3840133 203.150033,42.7495439 C203.405033,42.6223964 203.531617,42.4946849 203.531617,42.7495439 C203.531617,43.5096103 203.658201,44.271932 203.658201,44.7805224 L211.531484,44.7805224 C211.151592,42.7495439 211.024867,40.8434577 211.024867,38.8120564 L211.024867,29.4142703 C211.024867,28.9061028 211.024867,28.3993449 210.896733,27.8914594 L211.024867,27.8914594 L217.881675,45.2886899 C217.881675,45.2886899 216.738897,49.2247678 213.182852,49.2247678 C211.65976,49.2247678 210.77029,48.9713184 209.500506,48.3365672 C209.245506,48.2085738 209.120614,48.3365672 208.992338,48.5895937 L206.960796,54.9397844 C208.230721,55.5745357 211.278599,56.5914345 214.580771,56.5914345 C221.819585,56.5914345 224.993483,48.5895937 227.152172,43.0027114 L232.358881,29.6687065 L232.485464,29.6687065 C232.358881,30.4303234 232.358881,31.1922222 232.358881,32.0816915 C232.358881,40.3355721 238.580796,45.2886899 246.835945,45.2886899 C249.375514,45.2886899 252.042794,44.7805224 254.202189,44.0190464 C254.202189,44.0190464 255.978449,38.8120564 256.360456,37.6689967 C256.48859,37.2889635 256.107289,37.0338226 255.853416,37.2889635 C253.694303,38.4307546 251.279909,39.5731095 248.487172,39.5731095 C244.296095,39.5731095 241.629942,38.1768823 241.248499,34.7474212 L257.884818,34.7474212 L257.884818,44.7805224 L266.392993,44.7805224 L266.392993,34.1133748 C266.392993,28.6525124 269.314005,26.2399502 272.616036,26.2399502 C273.377794,26.2399502 274.012546,26.4948093 274.012546,26.4948093 L275.917081,19.8896186 C275.917081,19.6364511 275.917081,19.5100083 275.662222,19.3827197 Z" id="Shape"></path>
            </g>
        </g>
    </g>
</svg>