<svg width="179" height="76" viewBox="0 0 179 76" fill="none" xmlns="http://www.w3.org/2000/svg">
<path fill-rule="evenodd" clip-rule="evenodd" d="M19.8338 16.0767C18.1848 16.719 16.4547 17.2959 14.6844 17.794C12.7036 18.3505 10.15 18.8429 7.97262 17.6976C7.10969 17.2432 6.52853 16.4531 6.37708 15.5294C6.22633 14.6142 6.5229 13.6876 7.1907 12.9862C8.20649 11.9211 9.58647 11.3576 11.1813 11.3576C13.4221 11.3576 15.8975 12.441 18.1524 14.4094C18.7356 14.9188 19.2999 15.4788 19.8338 16.0767ZM25.9844 57.7764C24.3931 63.1512 22.198 66.7075 19.2711 68.6498C17.8764 69.5757 16.4471 70.1772 15.0255 70.4368C11.2188 71.1318 7.45852 68.9573 6.07501 65.2688C4.77956 61.8174 5.17123 57.4718 7.2648 51.9943C10.2326 45.0823 16.4259 38.5031 24.7044 33.4681C25.3687 33.0643 26.0471 32.6696 26.7261 32.2925C26.9692 33.6869 27.1657 35.141 27.3115 36.6205C28.1589 45.2125 27.2171 53.6102 25.9844 57.7764ZM51.7638 25.1877L51.6046 19.8636L51.2932 19.8727C44.4433 20.0774 37.2088 21.7152 30.3477 24.6115C29.6256 22.3315 28.7528 20.2111 27.7497 18.2983C34.6081 14.6309 40.3182 9.57897 44.7258 3.28046L44.9054 3.02298L40.514 0L40.3372 0.253263C36.3417 5.94746 31.1352 10.5013 24.8608 13.7923C23.8796 12.5386 22.8032 11.3975 21.6585 10.3986C15.5327 5.05049 7.82204 4.59391 3.32283 9.31445C1.49272 11.235 0.686142 13.8148 1.10951 16.3917C1.53428 18.9771 3.12841 21.1707 5.48191 22.4089C9.8198 24.6924 14.4 23.405 16.1245 22.921C18.4801 22.2597 20.7681 21.4704 22.93 20.5748C23.9317 22.4454 24.7904 24.5743 25.4828 26.9099C14.5916 32.621 6.16592 41.0054 2.34437 49.9484L2.30845 50.0363C-0.289496 56.8118 -0.690317 62.4061 1.08415 67.1379C3.04881 72.3748 8.08127 75.8931 13.6068 75.8931C14.4014 75.8931 15.2031 75.8199 15.9892 75.6764C18.1272 75.2853 20.2264 74.4136 22.2277 73.0861C26.2394 70.424 29.1424 65.9103 31.1028 59.2861C32.5243 54.486 33.5458 45.4544 32.6237 36.0977C32.4102 33.938 32.0968 31.8324 31.691 29.8344C38.1697 26.9922 44.997 25.3896 51.4524 25.1976L51.7638 25.1877Z" fill="#1D1D1B"/>
<path fill-rule="evenodd" clip-rule="evenodd" d="M65.0867 54.8788H52.4231V65.1169H47.3906V39.8378H65.9341V44.4781H52.4231V50.2384H65.0867V54.8788Z" fill="#1D1D1B"/>
<path fill-rule="evenodd" clip-rule="evenodd" d="M100.629 47.5297L99.9253 52.2066C99.1497 51.8633 98.0311 51.6466 97.0752 51.6466C94.8928 51.6466 93.3952 52.9826 93.3952 55.5828V65.1167H88.6875V47.6198H93.2515V49.534C94.3518 47.8906 96.0291 47.1505 98.1755 47.1505C99.1856 47.1505 99.9795 47.2947 100.629 47.5297Z" fill="#1D1D1B"/>
<path fill-rule="evenodd" clip-rule="evenodd" d="M106.898 54.7161H114.636C114.203 52.4775 112.85 51.2133 110.83 51.2133C108.612 51.2133 107.313 52.5492 106.898 54.7161ZM119.366 56.3414C119.366 56.8831 119.33 57.5331 119.276 57.9306H106.883C107.388 60.4583 109.157 61.5593 111.376 61.5593C112.891 61.5593 114.532 60.9459 115.794 59.8807L118.554 62.9143C116.571 64.7378 114.045 65.5679 111.105 65.5679C105.747 65.5679 102.031 61.9209 102.031 56.4139C102.031 50.9068 105.639 47.1508 110.87 47.1508C115.903 47.1508 119.348 50.8885 119.366 56.3414Z" fill="#1D1D1B"/>
<path fill-rule="evenodd" clip-rule="evenodd" d="M142.248 59.8985L146 47.6201H150.925L145.008 65.1164H139.633L135.754 53.2897L131.912 65.1164H126.573L120.656 47.6201H125.671L129.405 59.8443L133.319 47.6201H138.28L142.248 59.8985Z" fill="#1D1D1B"/>
<path fill-rule="evenodd" clip-rule="evenodd" d="M158.844 65.1169H154.137V47.62H158.844V65.1169ZM159.483 41.8964C159.483 43.594 158.167 44.8941 156.471 44.8941C154.776 44.8941 153.477 43.594 153.477 41.8964C153.477 40.1989 154.776 38.8629 156.471 38.8629C158.167 38.8629 159.483 40.1989 159.483 41.8964Z" fill="#1D1D1B"/>
<path fill-rule="evenodd" clip-rule="evenodd" d="M163.969 65.1167H168.676V39.8383H163.969V65.1167Z" fill="#1D1D1B"/>
<path fill-rule="evenodd" clip-rule="evenodd" d="M173.395 65.1167H178.102V39.8383H173.395V65.1167Z" fill="#1D1D1B"/>
<path fill-rule="evenodd" clip-rule="evenodd" d="M78.4812 59.0864C77.2336 60.8304 75.8078 61.6852 74.2045 61.6852C72.8851 61.6852 71.994 60.9373 71.994 59.7625C71.994 58.5883 72.8851 57.8616 74.5603 57.6829L78.4812 57.1848V59.0864ZM84.5031 61.546C83.6479 61.546 83.2203 60.9755 83.2203 59.8724V53.5007C83.2203 49.4077 80.1546 47.0573 75.6279 47.0573C72.2629 47.0573 69.6572 48.6739 68.5787 51.4584C69.6628 51.877 71.6627 52.6691 72.6425 53.0582C72.8384 51.5583 73.9014 50.6529 75.5568 50.6529C77.4101 50.6529 78.4795 51.6139 78.4795 53.2158V53.9988L73.6675 54.4976C69.7114 54.8894 67.3945 56.9183 67.3945 60.1573C67.3945 63.4673 69.9608 65.568 73.0617 65.568C75.4497 65.568 77.0896 64.678 78.6577 63.0051H78.8718C79.6199 64.607 80.9746 65.4259 82.8991 65.4259C83.7902 65.4259 84.6101 65.3189 85.3589 65.0699V61.6522V61.3884C85.1807 61.4595 84.7531 61.546 84.5031 61.546Z" fill="#1D1D1B"/>
</svg>
